<mxfile host="Electron" modified="2023-06-16T21:03:50.606Z" agent="Mozilla/5.0 (Windows NT 10.0; Win64; x64) AppleWebKit/537.36 (KHTML, like Gecko) draw.io/21.4.0 Chrome/112.0.5615.204 Electron/24.5.1 Safari/537.36" etag="DEbWi7fbbubG2XQpjh5U" version="21.4.0" type="device">
  <diagram name="Страница 1" id="Dwt0RInNQwHjLRDilIlX">
    <mxGraphModel dx="1596" dy="868" grid="1" gridSize="10" guides="1" tooltips="1" connect="1" arrows="1" fold="1" page="1" pageScale="1" pageWidth="827" pageHeight="1169" math="0" shadow="0">
      <root>
        <mxCell id="0" />
        <mxCell id="1" parent="0" />
        <mxCell id="-B6dtIqJ7kkdnBFxNLt7-14" value="" style="edgeStyle=orthogonalEdgeStyle;rounded=0;orthogonalLoop=1;jettySize=auto;html=1;" parent="1" source="-B6dtIqJ7kkdnBFxNLt7-1" target="-B6dtIqJ7kkdnBFxNLt7-2" edge="1">
          <mxGeometry relative="1" as="geometry" />
        </mxCell>
        <mxCell id="-B6dtIqJ7kkdnBFxNLt7-1" value="Начало" style="rounded=1;whiteSpace=wrap;html=1;" parent="1" vertex="1">
          <mxGeometry x="354" y="40" width="120" height="60" as="geometry" />
        </mxCell>
        <mxCell id="-B6dtIqJ7kkdnBFxNLt7-15" value="" style="edgeStyle=orthogonalEdgeStyle;rounded=0;orthogonalLoop=1;jettySize=auto;html=1;" parent="1" source="-B6dtIqJ7kkdnBFxNLt7-2" target="-B6dtIqJ7kkdnBFxNLt7-3" edge="1">
          <mxGeometry relative="1" as="geometry" />
        </mxCell>
        <mxCell id="-B6dtIqJ7kkdnBFxNLt7-2" value="array[]" style="shape=parallelogram;perimeter=parallelogramPerimeter;whiteSpace=wrap;html=1;fixedSize=1;" parent="1" vertex="1">
          <mxGeometry x="354" y="130" width="120" height="60" as="geometry" />
        </mxCell>
        <mxCell id="-B6dtIqJ7kkdnBFxNLt7-16" value="" style="edgeStyle=orthogonalEdgeStyle;rounded=0;orthogonalLoop=1;jettySize=auto;html=1;" parent="1" source="-B6dtIqJ7kkdnBFxNLt7-3" target="-B6dtIqJ7kkdnBFxNLt7-4" edge="1">
          <mxGeometry relative="1" as="geometry" />
        </mxCell>
        <mxCell id="-B6dtIqJ7kkdnBFxNLt7-3" value="min_index = 0;&lt;br&gt;max_index = 0;" style="shape=parallelogram;perimeter=parallelogramPerimeter;whiteSpace=wrap;html=1;fixedSize=1;" parent="1" vertex="1">
          <mxGeometry x="354" y="220" width="120" height="60" as="geometry" />
        </mxCell>
        <mxCell id="-B6dtIqJ7kkdnBFxNLt7-10" value="Yes" style="edgeStyle=orthogonalEdgeStyle;rounded=0;orthogonalLoop=1;jettySize=auto;html=1;" parent="1" source="-B6dtIqJ7kkdnBFxNLt7-4" target="-B6dtIqJ7kkdnBFxNLt7-5" edge="1">
          <mxGeometry relative="1" as="geometry" />
        </mxCell>
        <mxCell id="-B6dtIqJ7kkdnBFxNLt7-35" style="edgeStyle=orthogonalEdgeStyle;rounded=0;orthogonalLoop=1;jettySize=auto;html=1;entryX=0.5;entryY=0;entryDx=0;entryDy=0;" parent="1" source="-B6dtIqJ7kkdnBFxNLt7-4" target="-B6dtIqJ7kkdnBFxNLt7-27" edge="1">
          <mxGeometry relative="1" as="geometry">
            <Array as="points">
              <mxPoint x="590" y="350" />
              <mxPoint x="590" y="900" />
              <mxPoint x="414" y="900" />
            </Array>
          </mxGeometry>
        </mxCell>
        <mxCell id="-B6dtIqJ7kkdnBFxNLt7-44" value="No" style="edgeLabel;html=1;align=center;verticalAlign=middle;resizable=0;points=[];" parent="-B6dtIqJ7kkdnBFxNLt7-35" vertex="1" connectable="0">
          <mxGeometry x="-0.9303" y="2" relative="1" as="geometry">
            <mxPoint as="offset" />
          </mxGeometry>
        </mxCell>
        <mxCell id="-B6dtIqJ7kkdnBFxNLt7-4" value="i = 1, i &amp;lt; array.length, i++" style="shape=hexagon;perimeter=hexagonPerimeter2;whiteSpace=wrap;html=1;fixedSize=1;" parent="1" vertex="1">
          <mxGeometry x="334" y="310" width="160" height="80" as="geometry" />
        </mxCell>
        <mxCell id="-B6dtIqJ7kkdnBFxNLt7-11" value="Yes" style="edgeStyle=orthogonalEdgeStyle;rounded=0;orthogonalLoop=1;jettySize=auto;html=1;" parent="1" source="-B6dtIqJ7kkdnBFxNLt7-5" target="-B6dtIqJ7kkdnBFxNLt7-7" edge="1">
          <mxGeometry relative="1" as="geometry" />
        </mxCell>
        <mxCell id="-B6dtIqJ7kkdnBFxNLt7-17" style="edgeStyle=orthogonalEdgeStyle;rounded=0;orthogonalLoop=1;jettySize=auto;html=1;entryX=0.5;entryY=0;entryDx=0;entryDy=0;" parent="1" source="-B6dtIqJ7kkdnBFxNLt7-5" target="-B6dtIqJ7kkdnBFxNLt7-8" edge="1">
          <mxGeometry relative="1" as="geometry">
            <mxPoint x="530" y="630" as="targetPoint" />
            <Array as="points">
              <mxPoint x="530" y="460" />
              <mxPoint x="530" y="620" />
            </Array>
          </mxGeometry>
        </mxCell>
        <mxCell id="-B6dtIqJ7kkdnBFxNLt7-43" value="No" style="edgeLabel;html=1;align=center;verticalAlign=middle;resizable=0;points=[];" parent="-B6dtIqJ7kkdnBFxNLt7-17" vertex="1" connectable="0">
          <mxGeometry x="-0.5068" y="-1" relative="1" as="geometry">
            <mxPoint as="offset" />
          </mxGeometry>
        </mxCell>
        <mxCell id="-B6dtIqJ7kkdnBFxNLt7-5" value="array[i] &amp;gt; array[max_index]" style="rhombus;whiteSpace=wrap;html=1;" parent="1" vertex="1">
          <mxGeometry x="314" y="420" width="200" height="80" as="geometry" />
        </mxCell>
        <mxCell id="-B6dtIqJ7kkdnBFxNLt7-12" value="" style="edgeStyle=orthogonalEdgeStyle;rounded=0;orthogonalLoop=1;jettySize=auto;html=1;" parent="1" source="-B6dtIqJ7kkdnBFxNLt7-7" target="-B6dtIqJ7kkdnBFxNLt7-8" edge="1">
          <mxGeometry relative="1" as="geometry" />
        </mxCell>
        <mxCell id="-B6dtIqJ7kkdnBFxNLt7-7" value="max_index = i;" style="rounded=0;whiteSpace=wrap;html=1;" parent="1" vertex="1">
          <mxGeometry x="354" y="530" width="120" height="60" as="geometry" />
        </mxCell>
        <mxCell id="-B6dtIqJ7kkdnBFxNLt7-13" value="Yes" style="edgeStyle=orthogonalEdgeStyle;rounded=0;orthogonalLoop=1;jettySize=auto;html=1;" parent="1" source="-B6dtIqJ7kkdnBFxNLt7-8" target="-B6dtIqJ7kkdnBFxNLt7-9" edge="1">
          <mxGeometry relative="1" as="geometry" />
        </mxCell>
        <mxCell id="-B6dtIqJ7kkdnBFxNLt7-20" style="edgeStyle=orthogonalEdgeStyle;rounded=0;orthogonalLoop=1;jettySize=auto;html=1;entryX=1;entryY=0.5;entryDx=0;entryDy=0;" parent="1" source="-B6dtIqJ7kkdnBFxNLt7-8" target="-B6dtIqJ7kkdnBFxNLt7-18" edge="1">
          <mxGeometry relative="1" as="geometry">
            <Array as="points">
              <mxPoint x="550" y="660" />
              <mxPoint x="550" y="850" />
            </Array>
          </mxGeometry>
        </mxCell>
        <mxCell id="-B6dtIqJ7kkdnBFxNLt7-45" value="No" style="edgeLabel;html=1;align=center;verticalAlign=middle;resizable=0;points=[];" parent="-B6dtIqJ7kkdnBFxNLt7-20" vertex="1" connectable="0">
          <mxGeometry x="-0.4564" y="1" relative="1" as="geometry">
            <mxPoint as="offset" />
          </mxGeometry>
        </mxCell>
        <mxCell id="-B6dtIqJ7kkdnBFxNLt7-8" value="array[i] &amp;lt; array[min_index]" style="rhombus;whiteSpace=wrap;html=1;" parent="1" vertex="1">
          <mxGeometry x="299" y="620" width="230" height="80" as="geometry" />
        </mxCell>
        <mxCell id="-B6dtIqJ7kkdnBFxNLt7-19" value="" style="edgeStyle=orthogonalEdgeStyle;rounded=0;orthogonalLoop=1;jettySize=auto;html=1;" parent="1" source="-B6dtIqJ7kkdnBFxNLt7-9" target="-B6dtIqJ7kkdnBFxNLt7-18" edge="1">
          <mxGeometry relative="1" as="geometry" />
        </mxCell>
        <mxCell id="-B6dtIqJ7kkdnBFxNLt7-9" value="min_index = i;" style="rounded=0;whiteSpace=wrap;html=1;" parent="1" vertex="1">
          <mxGeometry x="354" y="730" width="120" height="60" as="geometry" />
        </mxCell>
        <mxCell id="-B6dtIqJ7kkdnBFxNLt7-21" style="edgeStyle=orthogonalEdgeStyle;rounded=0;orthogonalLoop=1;jettySize=auto;html=1;entryX=0;entryY=0.5;entryDx=0;entryDy=0;" parent="1" source="-B6dtIqJ7kkdnBFxNLt7-18" target="-B6dtIqJ7kkdnBFxNLt7-4" edge="1">
          <mxGeometry relative="1" as="geometry">
            <Array as="points">
              <mxPoint x="290" y="850" />
              <mxPoint x="290" y="350" />
            </Array>
          </mxGeometry>
        </mxCell>
        <mxCell id="-B6dtIqJ7kkdnBFxNLt7-18" value="i++;" style="rounded=0;whiteSpace=wrap;html=1;" parent="1" vertex="1">
          <mxGeometry x="354" y="820" width="120" height="60" as="geometry" />
        </mxCell>
        <mxCell id="-B6dtIqJ7kkdnBFxNLt7-26" value="&lt;h1&gt;&lt;span style=&quot;font-size: 12px; font-weight: 400;&quot;&gt;Задача3: Найти сумму элементов массива, лежащих между максимальным и минимальным по значению элементами&lt;/span&gt;&lt;/h1&gt;&lt;div&gt;&lt;span style=&quot;font-size: 12px; font-weight: 400;&quot;&gt;&lt;br&gt;&lt;/span&gt;&lt;/div&gt;" style="text;html=1;strokeColor=none;fillColor=none;spacing=5;spacingTop=-20;whiteSpace=wrap;overflow=hidden;rounded=0;" parent="1" vertex="1">
          <mxGeometry x="100" y="40" width="190" height="150" as="geometry" />
        </mxCell>
        <mxCell id="-B6dtIqJ7kkdnBFxNLt7-38" style="edgeStyle=orthogonalEdgeStyle;rounded=0;orthogonalLoop=1;jettySize=auto;html=1;entryX=1;entryY=0.5;entryDx=0;entryDy=0;" parent="1" source="-B6dtIqJ7kkdnBFxNLt7-27" target="-B6dtIqJ7kkdnBFxNLt7-30" edge="1">
          <mxGeometry relative="1" as="geometry">
            <Array as="points">
              <mxPoint x="520" y="950" />
              <mxPoint x="520" y="1139" />
            </Array>
          </mxGeometry>
        </mxCell>
        <mxCell id="-B6dtIqJ7kkdnBFxNLt7-42" value="No" style="edgeLabel;html=1;align=center;verticalAlign=middle;resizable=0;points=[];" parent="-B6dtIqJ7kkdnBFxNLt7-38" vertex="1" connectable="0">
          <mxGeometry x="-0.1797" relative="1" as="geometry">
            <mxPoint as="offset" />
          </mxGeometry>
        </mxCell>
        <mxCell id="-B6dtIqJ7kkdnBFxNLt7-40" value="Yes" style="edgeStyle=orthogonalEdgeStyle;rounded=0;orthogonalLoop=1;jettySize=auto;html=1;entryX=0.5;entryY=0;entryDx=0;entryDy=0;" parent="1" source="-B6dtIqJ7kkdnBFxNLt7-27" target="-B6dtIqJ7kkdnBFxNLt7-28" edge="1">
          <mxGeometry relative="1" as="geometry" />
        </mxCell>
        <mxCell id="-B6dtIqJ7kkdnBFxNLt7-27" value="max_index &amp;lt; min_index" style="rhombus;whiteSpace=wrap;html=1;" parent="1" vertex="1">
          <mxGeometry x="329" y="910" width="170" height="80" as="geometry" />
        </mxCell>
        <mxCell id="-B6dtIqJ7kkdnBFxNLt7-41" value="" style="edgeStyle=orthogonalEdgeStyle;rounded=0;orthogonalLoop=1;jettySize=auto;html=1;" parent="1" source="-B6dtIqJ7kkdnBFxNLt7-28" target="-B6dtIqJ7kkdnBFxNLt7-30" edge="1">
          <mxGeometry relative="1" as="geometry" />
        </mxCell>
        <mxCell id="-B6dtIqJ7kkdnBFxNLt7-28" value="temp = min_index;&lt;br&gt;min_index = max_index;&lt;br&gt;max_index = temp;" style="rounded=0;whiteSpace=wrap;html=1;" parent="1" vertex="1">
          <mxGeometry x="346" y="1020" width="136" height="60" as="geometry" />
        </mxCell>
        <mxCell id="-B6dtIqJ7kkdnBFxNLt7-46" value="Yes" style="edgeStyle=orthogonalEdgeStyle;rounded=0;orthogonalLoop=1;jettySize=auto;html=1;" parent="1" source="-B6dtIqJ7kkdnBFxNLt7-29" target="-B6dtIqJ7kkdnBFxNLt7-31" edge="1">
          <mxGeometry relative="1" as="geometry" />
        </mxCell>
        <mxCell id="-B6dtIqJ7kkdnBFxNLt7-49" style="edgeStyle=orthogonalEdgeStyle;rounded=0;orthogonalLoop=1;jettySize=auto;html=1;entryX=1.008;entryY=0.425;entryDx=0;entryDy=0;entryPerimeter=0;" parent="1" source="-B6dtIqJ7kkdnBFxNLt7-29" target="-B6dtIqJ7kkdnBFxNLt7-32" edge="1">
          <mxGeometry relative="1" as="geometry">
            <Array as="points">
              <mxPoint x="573" y="1240" />
              <mxPoint x="573" y="1434" />
            </Array>
          </mxGeometry>
        </mxCell>
        <mxCell id="-B6dtIqJ7kkdnBFxNLt7-50" value="No" style="edgeLabel;html=1;align=center;verticalAlign=middle;resizable=0;points=[];" parent="-B6dtIqJ7kkdnBFxNLt7-49" vertex="1" connectable="0">
          <mxGeometry x="-0.6026" y="-2" relative="1" as="geometry">
            <mxPoint as="offset" />
          </mxGeometry>
        </mxCell>
        <mxCell id="-B6dtIqJ7kkdnBFxNLt7-29" value="j = min_index + 1, j &amp;lt; max_index; i++" style="shape=hexagon;perimeter=hexagonPerimeter2;whiteSpace=wrap;html=1;fixedSize=1;" parent="1" vertex="1">
          <mxGeometry x="275" y="1200" width="278" height="80" as="geometry" />
        </mxCell>
        <mxCell id="-B6dtIqJ7kkdnBFxNLt7-37" value="" style="edgeStyle=orthogonalEdgeStyle;rounded=0;orthogonalLoop=1;jettySize=auto;html=1;" parent="1" source="-B6dtIqJ7kkdnBFxNLt7-30" target="-B6dtIqJ7kkdnBFxNLt7-29" edge="1">
          <mxGeometry relative="1" as="geometry" />
        </mxCell>
        <mxCell id="-B6dtIqJ7kkdnBFxNLt7-30" value="sum = 0;" style="rounded=0;whiteSpace=wrap;html=1;" parent="1" vertex="1">
          <mxGeometry x="354" y="1109" width="120" height="60" as="geometry" />
        </mxCell>
        <mxCell id="-B6dtIqJ7kkdnBFxNLt7-48" style="edgeStyle=orthogonalEdgeStyle;rounded=0;orthogonalLoop=1;jettySize=auto;html=1;entryX=0;entryY=0.5;entryDx=0;entryDy=0;" parent="1" source="-B6dtIqJ7kkdnBFxNLt7-31" target="-B6dtIqJ7kkdnBFxNLt7-29" edge="1">
          <mxGeometry relative="1" as="geometry">
            <mxPoint x="260" y="1240" as="targetPoint" />
            <Array as="points">
              <mxPoint x="255" y="1350" />
              <mxPoint x="255" y="1240" />
            </Array>
          </mxGeometry>
        </mxCell>
        <mxCell id="-B6dtIqJ7kkdnBFxNLt7-31" value="sum += array[j]" style="rounded=0;whiteSpace=wrap;html=1;" parent="1" vertex="1">
          <mxGeometry x="354" y="1310" width="120" height="60" as="geometry" />
        </mxCell>
        <mxCell id="-B6dtIqJ7kkdnBFxNLt7-51" value="" style="edgeStyle=orthogonalEdgeStyle;rounded=0;orthogonalLoop=1;jettySize=auto;html=1;" parent="1" source="-B6dtIqJ7kkdnBFxNLt7-32" target="-B6dtIqJ7kkdnBFxNLt7-33" edge="1">
          <mxGeometry relative="1" as="geometry" />
        </mxCell>
        <mxCell id="-B6dtIqJ7kkdnBFxNLt7-32" value="sum" style="shape=document;whiteSpace=wrap;html=1;boundedLbl=1;" parent="1" vertex="1">
          <mxGeometry x="354" y="1400" width="120" height="80" as="geometry" />
        </mxCell>
        <mxCell id="-B6dtIqJ7kkdnBFxNLt7-33" value="Конец" style="rounded=1;whiteSpace=wrap;html=1;" parent="1" vertex="1">
          <mxGeometry x="354" y="1510" width="120" height="60" as="geometry" />
        </mxCell>
      </root>
    </mxGraphModel>
  </diagram>
</mxfile>
